<svg width="24" height="24" viewBox="0 0 24 24" fill="none" xmlns="http://www.w3.org/2000/svg">
<g id="Search">
<path id="Shape" d="M10.125 2.25C5.77576 2.25 2.25 5.77576 2.25 10.125C2.25 14.4742 5.77576 18 10.125 18C12.0296 18 13.7762 17.3239 15.138 16.1986L20.4698 21.5303C20.7627 21.8232 21.2375 21.8232 21.5304 21.5303C21.8233 21.2374 21.8233 20.7626 21.5304 20.4697L16.1987 15.1379C17.3239 13.7761 18 12.0295 18 10.125C18 5.77576 14.4742 2.25 10.125 2.25ZM3.75 10.125C3.75 6.60418 6.60418 3.75 10.125 3.75C13.6458 3.75 16.5 6.60418 16.5 10.125C16.5 13.6458 13.6458 16.5 10.125 16.5C6.60418 16.5 3.75 13.6458 3.75 10.125Z" fill="#E7EFF3"/>
</g>
</svg>
