<svg width="42" height="48" viewBox="0 0 42 48" fill="none" xmlns="http://www.w3.org/2000/svg">
<g clip-path="url(#clip0_1580_4575)">
<path d="M18.643 32.2455C19.8037 32.9109 20.846 33.5049 21.8646 34.1465C22.3384 34.4554 22.7174 34.4317 23.2149 34.1465C27.2893 31.7941 31.3638 29.4891 35.4382 27.1842C35.912 26.9228 36.0541 26.5901 36.0541 26.0673C36.0305 20.3168 36.0305 14.5663 35.9594 8.79208C35.9594 8.45941 35.6751 7.9604 35.3909 7.79406C31.0321 5.20396 26.6261 2.68515 22.1963 0.142574C21.9831 0.0237622 21.6277 -0.047525 21.4619 0.0475245C20.2775 0.689109 19.1168 1.35446 17.8613 2.09109C18.264 2.32871 18.5245 2.51881 18.8088 2.68515C22.978 5.08515 27.1472 7.50891 31.3164 9.88515C31.8613 10.1941 32.0981 10.5267 32.0744 11.1921C32.0744 15.3505 32.0981 19.4851 32.1455 23.6436C32.1455 24.3089 31.956 24.6891 31.3638 25.0218C28.8291 26.4238 26.3181 27.8733 23.7834 29.299C22.1015 30.2495 20.4433 31.2238 18.643 32.2455Z" fill="#00B39F"/>
<path d="M28.758 37.5683C32.9746 35.1921 37.1675 32.7683 41.3604 30.3445C41.6447 30.1782 41.9053 29.7505 41.9053 29.4416C41.9053 23.6198 41.8816 17.8218 41.8579 12C41.8579 11.7148 41.6684 11.3109 41.4552 11.1683C40.3655 10.4792 39.2521 9.83761 37.9492 9.07721C37.9492 9.55246 37.9492 9.81384 37.9492 10.099C37.9729 15.6356 37.9729 21.1723 38.0203 26.7089C38.0203 27.493 37.8308 27.9208 37.1201 28.301C34.5855 29.7029 32.0745 31.1525 29.5635 32.602C27.8579 33.5762 26.1523 34.5742 24.3756 35.596" fill="#00D3A9"/>
<path d="M29.8003 22.1941C29.8003 20.8396 29.8477 19.604 29.7767 18.3921C29.753 18.0356 29.4924 17.5604 29.2081 17.3941C25.0863 14.9465 20.9408 12.5228 16.819 10.1465C16.5584 10.004 16.0846 9.98019 15.824 10.1228C10.7547 12.998 5.70897 15.897 0.663287 18.8436C0.402711 19.0099 0.142136 19.4614 0.142136 19.7703C0.118448 24.8079 0.142136 29.8455 0.189514 34.9069C0.189514 35.1683 0.236891 35.5485 0.402711 35.6436C1.56346 36.3802 2.77158 37.0455 4.07445 37.8059C4.07445 37.3069 4.07445 36.998 4.07445 36.6891C4.05077 31.8653 4.05077 27.0416 4.00339 22.2178C4.00339 21.6713 4.12183 21.3148 4.64298 21.0297C8.31472 18.9386 11.9391 16.8475 15.5635 14.7327C16.0609 14.4475 16.4636 14.4 16.9848 14.7089C19.6379 16.301 22.291 17.8218 24.9679 19.3901C26.5313 20.3168 28.1184 21.2198 29.8003 22.1941Z" fill="#00B39F"/>
<path d="M42 32.0317C41.4315 32.3406 41.0998 32.5545 40.7445 32.7446C36.6464 35.097 32.5719 37.4495 28.4738 39.8258C28 40.1109 27.6447 40.1584 27.1472 39.8495C23.4755 37.6871 19.78 35.5723 16.0846 33.4574C15.5635 33.1723 15.445 32.8159 15.445 32.2693C15.4687 27.6832 15.445 23.1208 15.445 18.5347C15.445 18.2495 15.4213 17.9406 15.3976 17.5129C14.2606 18.1782 13.242 18.796 12.176 19.3426C11.6548 19.604 11.5127 19.9842 11.5127 20.5307C11.5364 25.2357 11.5127 29.9406 11.5601 34.6218C11.5601 34.9545 11.8443 35.4535 12.1286 35.6198C17.1506 38.5663 22.1963 41.4891 27.2657 44.3881C27.5262 44.5545 28.0474 44.5307 28.3316 44.3881C32.714 41.9168 37.0491 39.398 41.4078 36.8555C41.6447 36.7129 41.9526 36.4277 41.9526 36.2139C42.0237 34.9069 42 33.5762 42 32.0317Z" fill="#00B39F"/>
<path d="M29.824 15.5644C29.824 14.2099 29.8003 13.0218 29.824 11.8099C29.8477 11.2871 29.6582 10.9782 29.1844 10.7168C25.0152 8.31684 20.8697 5.89308 16.6768 3.51684C16.3925 3.35051 15.824 3.35051 15.5398 3.51684C10.5414 6.34457 5.54313 9.21981 0.544826 12.1188C0.331628 12.2376 0.0236752 12.4277 0.0236752 12.5941C-0.0237022 13.9723 -1.35028e-05 15.3743 -1.35028e-05 16.8951C0.402694 16.6812 0.615892 16.5862 0.82909 16.4673C5.73264 13.6634 10.6125 10.8594 15.5161 8.03169C15.9661 7.77031 16.2978 7.74655 16.7479 8.00793C20.3012 10.099 23.9018 12.1663 27.4788 14.2337C28.2132 14.6614 28.9475 15.0654 29.824 15.5644Z" fill="#00D3A9"/>
<path d="M25.9628 45.9089C25.6074 45.6713 25.3942 45.5287 25.181 45.4099C20.3012 42.5822 15.4213 39.7544 10.5178 36.9505C9.97293 36.6416 9.73604 36.3089 9.75973 35.6673C9.78342 31.0574 9.75973 26.4475 9.73604 21.8376C9.73604 21.5287 9.71235 21.196 9.68866 20.7683C8.43316 21.4812 7.34348 22.099 6.27749 22.7644C6.04061 22.9069 5.87479 23.3109 5.87479 23.5723C5.87479 28.4198 5.87479 33.2911 5.92216 38.1386C5.92216 38.4475 6.18274 38.899 6.467 39.0653C11.4653 42.0119 16.511 44.9109 21.5567 47.8337C21.7936 47.9762 22.1726 48.0713 22.3858 47.9525C23.5702 47.3346 24.6836 46.6455 25.9628 45.9089Z" fill="#00D3A9"/>
</g>
<defs>
<clipPath id="clip0_1580_4575">
<rect width="42" height="48" fill="white"/>
</clipPath>
</defs>
</svg>
