<svg width="34" height="34" viewBox="0 0 34 34" fill="none" xmlns="http://www.w3.org/2000/svg">
<path fill-rule="evenodd" clip-rule="evenodd" d="M16.9999 7C18.1045 7 18.9999 6.10457 18.9999 5C18.9999 3.89543 18.1045 3 16.9999 3C15.8953 3 14.9999 3.89543 14.9999 5C14.9999 6.10457 15.8953 7 16.9999 7ZM26.1429 16.9998C26.1429 22.0493 22.0495 26.1426 17.0001 26.1426C11.9506 26.1426 7.85722 22.0493 7.85722 16.9998C7.85722 11.9503 11.9506 7.85693 17.0001 7.85693C22.0495 7.85693 26.1429 11.9503 26.1429 16.9998ZM18.9999 28.9998C18.9999 30.1044 18.1045 30.9998 16.9999 30.9998C15.8953 30.9998 14.9999 30.1044 14.9999 28.9998C14.9999 27.8953 15.8953 26.9998 16.9999 26.9998C18.1045 26.9998 18.9999 27.8953 18.9999 28.9998ZM27.5713 25.5716C27.5713 26.6762 26.6759 27.5716 25.5713 27.5716C24.4668 27.5716 23.5713 26.6762 23.5713 25.5716C23.5713 24.467 24.4668 23.5716 25.5713 23.5716C26.6759 23.5716 27.5713 24.467 27.5713 25.5716ZM8.42851 27.5716C9.53308 27.5716 10.4285 26.6762 10.4285 25.5716C10.4285 24.467 9.53308 23.5716 8.42851 23.5716C7.32394 23.5716 6.42851 24.467 6.42851 25.5716C6.42851 26.6762 7.32394 27.5716 8.42851 27.5716ZM10.4285 8.42879C10.4285 9.53336 9.53308 10.4288 8.42851 10.4288C7.32394 10.4288 6.42851 9.53336 6.42851 8.42879C6.42851 7.32422 7.32394 6.42879 8.42851 6.42879C9.53308 6.42879 10.4285 7.32422 10.4285 8.42879ZM25.5713 10.4288C26.6759 10.4288 27.5713 9.53336 27.5713 8.42879C27.5713 7.32422 26.6759 6.42879 25.5713 6.42879C24.4668 6.42879 23.5713 7.32422 23.5713 8.42879C23.5713 9.53336 24.4668 10.4288 25.5713 10.4288ZM31.0001 16.9999C31.0001 18.1045 30.1047 18.9999 29.0001 18.9999C27.8956 18.9999 27.0001 18.1045 27.0001 16.9999C27.0001 15.8953 27.8956 14.9999 29.0001 14.9999C30.1047 14.9999 31.0001 15.8953 31.0001 16.9999ZM5 18.9999C6.10457 18.9999 7 18.1045 7 16.9999C7 15.8953 6.10457 14.9999 5 14.9999C3.89543 14.9999 3 15.8953 3 16.9999C3 18.1045 3.89543 18.9999 5 18.9999Z" fill="black"/>
</svg>
