<svg width="24" height="24" viewBox="0 0 24 24" fill="none" xmlns="http://www.w3.org/2000/svg">
<g id="Weather">
<path id="Shape" d="M11.8493 1.97349C11.7154 2.13155 11.6659 2.34443 11.7163 2.54534C12.2754 4.77459 12.6635 8.13274 11.1947 11.07C10.4591 12.541 9.14139 13.6586 7.62107 14.501C6.10389 15.3416 4.43186 15.8817 3.0615 16.2189C2.86481 16.2673 2.70244 16.4056 2.62333 16.5921C2.54421 16.7786 2.55761 16.9914 2.65949 17.1665C4.44018 20.2266 7.75699 22.2861 11.5555 22.2861C17.2362 22.2861 21.8413 17.681 21.8413 12.0004C21.8413 6.60107 17.6815 2.17398 12.3914 1.74817C12.185 1.73155 11.9831 1.81543 11.8493 1.97349ZM13.1685 3.14442C17.3691 3.90431 20.5555 7.58051 20.5555 12.0004C20.5555 16.9709 16.5261 21.0004 11.5555 21.0004C8.53933 21.0004 5.86899 19.5169 4.23528 17.2375C5.48796 16.8804 6.91121 16.3642 8.24418 15.6256C9.89304 14.712 11.4511 13.4318 12.3446 11.6451C13.8159 8.70293 13.6313 5.46786 13.1685 3.14442Z" fill="#142126"/>
</g>
</svg>
