<?xml version="1.0" encoding="UTF-8" standalone="no"?>
<!DOCTYPE svg PUBLIC "-//W3C//DTD SVG 20010904//EN"
              "http://www.w3.org/TR/2001/REC-SVG-20010904/DTD/svg10.dtd">

<svg xmlns="http://www.w3.org/2000/svg"
     width="3.22667in" height="3.2in"
     viewBox="0 0 968 960">
  <path id="Selection"
        fill="#ffffff"
        d="M 526.00,526.00
           C 526.00,526.00 495.00,546.33 495.00,546.33
             491.98,548.34 484.31,554.17 481.00,554.17
             477.78,554.17 472.64,550.02 470.00,548.14
             470.00,548.14 446.00,531.42 446.00,531.42
             446.00,531.42 357.00,468.86 357.00,468.86
             357.00,468.86 335.00,454.00 335.00,454.00
             332.65,452.43 326.34,448.60 324.99,446.48
             323.75,444.53 324.00,441.26 324.00,439.00
             324.00,439.00 324.00,396.00 324.00,396.00
             324.00,396.00 325.00,380.00 325.00,380.00
             325.00,380.00 325.00,353.00 325.00,353.00
             325.00,350.57 324.80,347.33 326.02,345.18
             327.61,342.40 333.18,339.50 336.00,337.66
             336.00,337.66 360.00,321.67 360.00,321.67
             360.00,321.67 446.00,263.33 446.00,263.33
             446.00,263.33 470.00,246.88 470.00,246.88
             472.26,245.33 480.89,239.48 483.00,238.98
             486.25,238.21 489.40,240.74 492.00,242.42
             492.00,242.42 512.00,255.97 512.00,255.97
             512.00,255.97 530.00,267.74 530.00,267.74
             530.00,267.74 589.00,308.00 589.00,308.00
             589.00,308.00 707.00,389.33 707.00,389.33
             707.00,389.33 734.00,407.67 734.00,407.67
             736.60,409.40 744.59,414.28 746.01,416.52
             747.14,418.30 748.00,433.08 748.00,436.00
             748.00,436.00 748.00,469.00 748.00,469.00
             748.00,469.00 749.00,486.00 749.00,486.00
             749.00,486.00 749.00,532.00 749.00,532.00
             749.00,532.00 750.00,547.00 750.00,547.00
             750.00,547.00 750.00,573.00 750.00,573.00
             749.98,583.54 748.80,581.12 735.00,589.40
             735.00,589.40 688.00,616.00 688.00,616.00
             686.30,610.03 687.00,601.38 686.96,595.00
             686.96,595.00 686.96,581.00 686.96,581.00
             686.96,581.00 686.00,571.00 686.00,571.00
             686.00,571.00 686.00,511.00 686.00,511.00
             686.00,511.00 685.00,496.00 685.00,496.00
             685.00,496.00 685.00,454.00 685.00,454.00
             684.98,442.33 680.02,441.60 671.00,435.28
             671.00,435.28 641.00,414.28 641.00,414.28
             641.00,414.28 526.00,333.28 526.00,333.28
             526.00,333.28 494.00,310.58 494.00,310.58
             491.02,308.47 483.29,302.47 480.00,302.09
             477.25,301.77 474.29,303.68 472.00,305.01
             472.00,305.01 455.00,315.68 455.00,315.68
             455.00,315.68 398.00,352.05 398.00,352.05
             393.38,354.95 381.46,361.23 379.60,366.04
             378.88,367.88 379.00,370.99 378.96,373.00
             378.96,373.00 378.96,389.00 378.96,389.00
             378.96,389.00 378.00,401.00 378.00,401.00
             378.00,401.00 378.00,424.00 378.00,424.00
             378.00,424.00 393.00,432.35 393.00,432.35
             393.00,432.35 420.00,451.00 420.00,451.00
             420.00,451.00 493.00,502.14 493.00,502.14
             493.00,502.14 526.00,526.00 526.00,526.00 Z" />
  <path id="Selection #1"
        fill="#B1B6B8" 
        d="M 438.00,434.00
           C 438.00,434.00 470.00,414.19 470.00,414.19
             473.45,412.08 479.96,407.24 484.00,407.63
             487.14,407.92 493.19,412.46 496.00,414.33
             496.00,414.33 521.00,431.12 521.00,431.12
             521.00,431.12 611.00,492.00 611.00,492.00
             611.00,492.00 634.00,507.67 634.00,507.67
             636.51,509.34 642.55,512.95 643.98,515.32
             645.22,517.39 645.00,520.63 645.00,523.00
             645.00,523.00 645.00,563.00 645.00,563.00
             645.00,563.00 646.00,579.00 646.00,579.00
             646.00,579.00 646.00,628.00 646.00,628.00
             646.00,630.15 646.26,633.56 645.01,635.37
             643.82,637.09 637.14,640.72 635.00,642.00
             635.00,642.00 611.00,656.60 611.00,656.60
             611.00,656.60 523.00,711.81 523.00,711.81
             523.00,711.81 497.00,728.00 497.00,728.00
             494.73,729.37 488.10,733.76 486.00,734.16
             482.90,734.75 480.40,732.66 478.00,731.00
             478.00,731.00 461.00,718.71 461.00,718.71
             461.00,718.71 393.00,670.67 393.00,670.67
             393.00,670.67 269.00,584.33 269.00,584.33
             269.00,584.33 242.00,565.34 242.00,565.34
             239.13,563.37 231.57,558.54 230.02,555.82
             228.54,553.21 228.97,545.27 229.00,542.00
             229.00,542.00 230.00,527.00 230.00,527.00
             230.00,527.00 231.00,466.00 231.00,466.00
             231.00,466.00 232.00,449.00 232.00,449.00
             232.00,449.00 233.00,416.00 233.00,416.00
             233.01,412.12 232.62,408.47 235.43,405.38
             235.43,405.38 252.00,394.34 252.00,394.34
             252.00,394.34 275.00,379.95 275.00,379.95
             280.18,376.66 285.11,372.86 291.00,371.00
             293.83,380.95 291.02,396.51 291.00,407.00
             291.00,407.00 291.00,439.00 291.00,439.00
             291.00,439.00 290.00,454.00 290.00,454.00
             290.00,454.00 290.00,475.00 290.00,475.00
             290.00,475.00 289.04,487.00 289.04,487.00
             289.04,487.00 289.04,502.00 289.04,502.00
             289.04,502.00 288.00,516.00 288.00,516.00
             287.97,519.15 287.62,525.29 289.02,527.96
             290.73,531.21 297.77,535.78 301.00,537.93
             301.00,537.93 326.00,555.00 326.00,555.00
             326.00,555.00 372.00,587.28 372.00,587.28
             372.00,587.28 441.00,636.12 441.00,636.12
             441.00,636.12 474.00,659.87 474.00,659.87
             476.69,661.89 484.04,668.13 487.28,667.77
             489.57,667.53 493.99,664.34 496.00,663.00
             496.00,663.00 512.00,652.43 512.00,652.43
             512.00,652.43 567.00,615.66 567.00,615.66
             571.89,612.33 582.42,606.35 584.40,601.00
             585.11,599.07 585.00,596.08 585.00,594.00
             585.00,594.00 585.00,547.00 585.00,547.00
             585.00,544.69 585.14,541.20 584.26,539.09
             582.62,535.13 570.97,528.06 567.00,525.28
             567.00,525.28 517.00,490.58 517.00,490.58
             517.00,490.58 466.00,454.98 466.00,454.98
             466.00,454.98 438.00,436.00 438.00,436.00
             438.00,436.00 438.00,434.00 438.00,434.00 Z" />
</svg>
